# Blender 4.2.1 LTS
# www.blender.org
mtllib cylinder.mtl
o Cylinder
v 0.000000 -1.000000 -1.000000
v 0.000000 1.000000 -1.000000
v 0.195090 -1.000000 -0.980785
v 0.195090 1.000000 -0.980785
v 0.382683 -1.000000 -0.923880
v 0.382683 1.000000 -0.923880
v 0.555570 -1.000000 -0.831470
v 0.555570 1.000000 -0.831470
v 0.707107 -1.000000 -0.707107
v 0.707107 1.000000 -0.707107
v 0.831470 -1.000000 -0.555570
v 0.831470 1.000000 -0.555570
v 0.923880 -1.000000 -0.382683
v 0.923880 1.000000 -0.382683
v 0.980785 -1.000000 -0.195090
v 0.980785 1.000000 -0.195090
v 1.000000 -1.000000 0.000000
v 1.000000 1.000000 0.000000
v 0.980785 -1.000000 0.195090
v 0.980785 1.000000 0.195090
v 0.923880 -1.000000 0.382683
v 0.923880 1.000000 0.382683
v 0.831470 -1.000000 0.555570
v 0.831470 1.000000 0.555570
v 0.707107 -1.000000 0.707107
v 0.707107 1.000000 0.707107
v 0.555570 -1.000000 0.831470
v 0.555570 1.000000 0.831470
v 0.382683 -1.000000 0.923880
v 0.382683 1.000000 0.923880
v 0.195090 -1.000000 0.980785
v 0.195090 1.000000 0.980785
v 0.000000 -1.000000 1.000000
v 0.000000 1.000000 1.000000
v -0.195090 -1.000000 0.980785
v -0.195090 1.000000 0.980785
v -0.382683 -1.000000 0.923880
v -0.382683 1.000000 0.923880
v -0.555570 -1.000000 0.831470
v -0.555570 1.000000 0.831470
v -0.707107 -1.000000 0.707107
v -0.707107 1.000000 0.707107
v -0.831470 -1.000000 0.555570
v -0.831470 1.000000 0.555570
v -0.923880 -1.000000 0.382683
v -0.923880 1.000000 0.382683
v -0.980785 -1.000000 0.195090
v -0.980785 1.000000 0.195090
v -1.000000 -1.000000 0.000000
v -1.000000 1.000000 0.000000
v -0.980785 -1.000000 -0.195090
v -0.980785 1.000000 -0.195090
v -0.923880 -1.000000 -0.382683
v -0.923880 1.000000 -0.382683
v -0.831470 -1.000000 -0.555570
v -0.831470 1.000000 -0.555570
v -0.707107 -1.000000 -0.707107
v -0.707107 1.000000 -0.707107
v -0.555570 -1.000000 -0.831470
v -0.555570 1.000000 -0.831470
v -0.382683 -1.000000 -0.923880
v -0.382683 1.000000 -0.923880
v -0.195090 -1.000000 -0.980785
v -0.195090 1.000000 -0.980785
v 0.097545 -1.000000 -0.990393
v 0.097545 1.000000 -0.990393
v 0.000000 0.000000 -1.000000
v 0.195090 0.000000 -0.980785
v 0.288887 -1.000000 -0.952332
v 0.288887 1.000000 -0.952332
v 0.382683 0.000000 -0.923880
v 0.469127 -1.000000 -0.877675
v 0.469127 1.000000 -0.877675
v 0.555570 0.000000 -0.831470
v 0.631338 -1.000000 -0.769288
v 0.631338 1.000000 -0.769288
v 0.707107 0.000000 -0.707107
v 0.769288 -1.000000 -0.631338
v 0.769288 1.000000 -0.631338
v 0.831470 0.000000 -0.555570
v 0.877675 -1.000000 -0.469127
v 0.877675 1.000000 -0.469127
v 0.923880 0.000000 -0.382683
v 0.952332 -1.000000 -0.288887
v 0.952332 1.000000 -0.288887
v 0.980785 0.000000 -0.195090
v 0.990393 -1.000000 -0.097545
v 0.990393 1.000000 -0.097545
v 1.000000 0.000000 0.000000
v 0.990393 -1.000000 0.097545
v 0.990393 1.000000 0.097545
v 0.980785 0.000000 0.195090
v 0.952332 -1.000000 0.288887
v 0.952332 1.000000 0.288887
v 0.923880 0.000000 0.382683
v 0.877675 -1.000000 0.469127
v 0.877675 1.000000 0.469127
v 0.831470 0.000000 0.555570
v 0.769288 -1.000000 0.631338
v 0.769288 1.000000 0.631338
v 0.707107 0.000000 0.707107
v 0.631338 -1.000000 0.769288
v 0.631338 1.000000 0.769288
v 0.555570 0.000000 0.831470
v 0.469127 -1.000000 0.877675
v 0.469127 1.000000 0.877675
v 0.382683 0.000000 0.923880
v 0.288887 -1.000000 0.952332
v 0.288887 1.000000 0.952332
v 0.195090 0.000000 0.980785
v 0.097545 -1.000000 0.990393
v 0.097545 1.000000 0.990393
v 0.000000 0.000000 1.000000
v -0.097545 -1.000000 0.990393
v -0.097545 1.000000 0.990393
v -0.195090 0.000000 0.980785
v -0.288887 -1.000000 0.952332
v -0.288887 1.000000 0.952332
v -0.382683 0.000000 0.923880
v -0.469127 -1.000000 0.877675
v -0.469127 1.000000 0.877675
v -0.555570 0.000000 0.831470
v -0.631338 -1.000000 0.769288
v -0.631338 1.000000 0.769288
v -0.707107 0.000000 0.707107
v -0.769288 -1.000000 0.631338
v -0.769288 1.000000 0.631338
v -0.831470 0.000000 0.555570
v -0.877675 -1.000000 0.469127
v -0.877675 1.000000 0.469127
v -0.923880 0.000000 0.382683
v -0.952332 -1.000000 0.288887
v -0.952332 1.000000 0.288887
v -0.980785 0.000000 0.195090
v -0.990393 -1.000000 0.097545
v -0.990393 1.000000 0.097545
v -1.000000 0.000000 0.000000
v -0.990393 -1.000000 -0.097545
v -0.990393 1.000000 -0.097545
v -0.980785 0.000000 -0.195090
v -0.952332 -1.000000 -0.288887
v -0.952332 1.000000 -0.288887
v -0.923880 0.000000 -0.382683
v -0.877675 -1.000000 -0.469127
v -0.877675 1.000000 -0.469127
v -0.831470 0.000000 -0.555570
v -0.769288 -1.000000 -0.631338
v -0.769288 1.000000 -0.631338
v -0.707107 0.000000 -0.707107
v -0.631338 -1.000000 -0.769288
v -0.631338 1.000000 -0.769288
v -0.555570 0.000000 -0.831470
v -0.469127 -1.000000 -0.877675
v -0.469127 1.000000 -0.877675
v -0.382683 0.000000 -0.923880
v -0.288887 -1.000000 -0.952332
v -0.288887 1.000000 -0.952332
v -0.195090 0.000000 -0.980785
v -0.097545 -1.000000 -0.990393
v -0.097545 1.000000 -0.990393
v -0.097545 0.000000 -0.990393
v -0.288887 0.000000 -0.952332
v -0.469127 0.000000 -0.877675
v -0.631338 0.000000 -0.769288
v -0.769288 0.000000 -0.631338
v -0.877675 0.000000 -0.469127
v -0.952332 0.000000 -0.288887
v -0.990393 0.000000 -0.097545
v -0.990393 0.000000 0.097545
v -0.952332 0.000000 0.288887
v -0.877675 0.000000 0.469127
v -0.769288 0.000000 0.631338
v -0.631338 0.000000 0.769288
v -0.469127 0.000000 0.877675
v -0.288887 0.000000 0.952332
v -0.097545 0.000000 0.990393
v 0.097545 0.000000 0.990393
v 0.288887 0.000000 0.952332
v 0.469127 0.000000 0.877675
v 0.631338 0.000000 0.769288
v 0.769288 0.000000 0.631338
v 0.877675 0.000000 0.469127
v 0.952332 0.000000 0.288887
v 0.990393 0.000000 0.097545
v 0.990393 0.000000 -0.097545
v 0.952332 0.000000 -0.288887
v 0.877675 0.000000 -0.469127
v 0.769288 0.000000 -0.631338
v 0.631338 0.000000 -0.769288
v 0.469127 0.000000 -0.877675
v 0.288887 0.000000 -0.952332
v 0.097545 0.000000 -0.990393
vn 0.0980 -0.0000 -0.9952
vn 0.2903 -0.0000 -0.9569
vn 0.4714 -0.0000 -0.8819
vn 0.6344 -0.0000 -0.7730
vn 0.7730 -0.0000 -0.6344
vn 0.8819 -0.0000 -0.4714
vn 0.9569 -0.0000 -0.2903
vn 0.9952 -0.0000 -0.0980
vn 0.9952 -0.0000 0.0980
vn 0.9569 -0.0000 0.2903
vn 0.8819 -0.0000 0.4714
vn 0.7730 -0.0000 0.6344
vn 0.6344 -0.0000 0.7730
vn 0.4714 -0.0000 0.8819
vn 0.2903 -0.0000 0.9569
vn 0.0980 -0.0000 0.9952
vn -0.0980 -0.0000 0.9952
vn -0.2903 -0.0000 0.9569
vn -0.4714 -0.0000 0.8819
vn -0.6344 -0.0000 0.7730
vn -0.7730 -0.0000 0.6344
vn -0.8819 -0.0000 0.4714
vn -0.9569 -0.0000 0.2903
vn -0.9952 -0.0000 0.0980
vn -0.9952 -0.0000 -0.0980
vn -0.9569 -0.0000 -0.2903
vn -0.8819 -0.0000 -0.4714
vn -0.7730 -0.0000 -0.6344
vn -0.6344 -0.0000 -0.7730
vn -0.4714 -0.0000 -0.8819
vn -0.0000 1.0000 -0.0000
vn -0.2903 -0.0000 -0.9569
vn -0.0980 -0.0000 -0.9952
vn -0.0000 -1.0000 -0.0000
vt 0.984375 0.750000
vt 0.984375 1.000000
vt 0.968750 1.000000
vt 0.968750 0.750000
vt 0.953125 0.750000
vt 0.953125 1.000000
vt 0.937500 1.000000
vt 0.937500 0.750000
vt 0.921875 0.750000
vt 0.921875 1.000000
vt 0.906250 1.000000
vt 0.906250 0.750000
vt 0.890625 0.750000
vt 0.890625 1.000000
vt 0.875000 1.000000
vt 0.875000 0.750000
vt 0.859375 0.750000
vt 0.859375 1.000000
vt 0.843750 1.000000
vt 0.843750 0.750000
vt 0.828125 0.750000
vt 0.828125 1.000000
vt 0.812500 1.000000
vt 0.812500 0.750000
vt 0.796875 0.750000
vt 0.796875 1.000000
vt 0.781250 1.000000
vt 0.781250 0.750000
vt 0.765625 0.750000
vt 0.765625 1.000000
vt 0.750000 1.000000
vt 0.750000 0.750000
vt 0.734375 0.750000
vt 0.734375 1.000000
vt 0.718750 1.000000
vt 0.718750 0.750000
vt 0.703125 0.750000
vt 0.703125 1.000000
vt 0.687500 1.000000
vt 0.687500 0.750000
vt 0.671875 0.750000
vt 0.671875 1.000000
vt 0.656250 1.000000
vt 0.656250 0.750000
vt 0.640625 0.750000
vt 0.640625 1.000000
vt 0.625000 1.000000
vt 0.625000 0.750000
vt 0.609375 0.750000
vt 0.609375 1.000000
vt 0.593750 1.000000
vt 0.593750 0.750000
vt 0.578125 0.750000
vt 0.578125 1.000000
vt 0.562500 1.000000
vt 0.562500 0.750000
vt 0.546875 0.750000
vt 0.546875 1.000000
vt 0.531250 1.000000
vt 0.531250 0.750000
vt 0.515625 0.750000
vt 0.515625 1.000000
vt 0.500000 1.000000
vt 0.500000 0.750000
vt 0.484375 0.750000
vt 0.484375 1.000000
vt 0.468750 1.000000
vt 0.468750 0.750000
vt 0.453125 0.750000
vt 0.453125 1.000000
vt 0.437500 1.000000
vt 0.437500 0.750000
vt 0.421875 0.750000
vt 0.421875 1.000000
vt 0.406250 1.000000
vt 0.406250 0.750000
vt 0.390625 0.750000
vt 0.390625 1.000000
vt 0.375000 1.000000
vt 0.375000 0.750000
vt 0.359375 0.750000
vt 0.359375 1.000000
vt 0.343750 1.000000
vt 0.343750 0.750000
vt 0.328125 0.750000
vt 0.328125 1.000000
vt 0.312500 1.000000
vt 0.312500 0.750000
vt 0.296875 0.750000
vt 0.296875 1.000000
vt 0.281250 1.000000
vt 0.281250 0.750000
vt 0.265625 0.750000
vt 0.265625 1.000000
vt 0.250000 1.000000
vt 0.250000 0.750000
vt 0.234375 0.750000
vt 0.234375 1.000000
vt 0.218750 1.000000
vt 0.218750 0.750000
vt 0.203125 0.750000
vt 0.203125 1.000000
vt 0.187500 1.000000
vt 0.187500 0.750000
vt 0.171875 0.750000
vt 0.171875 1.000000
vt 0.156250 1.000000
vt 0.156250 0.750000
vt 0.140625 0.750000
vt 0.140625 1.000000
vt 0.125000 1.000000
vt 0.125000 0.750000
vt 0.109375 0.750000
vt 0.109375 1.000000
vt 0.093750 1.000000
vt 0.093750 0.750000
vt 0.078125 0.750000
vt 0.078125 1.000000
vt 0.062500 1.000000
vt 0.062500 0.750000
vt 0.296822 0.485388
vt 0.273411 0.487694
vt 0.250000 0.490000
vt 0.226589 0.487694
vt 0.203178 0.485388
vt 0.180667 0.478560
vt 0.158156 0.471731
vt 0.137410 0.460642
vt 0.116663 0.449553
vt 0.098479 0.434629
vt 0.080294 0.419706
vt 0.065371 0.401521
vt 0.050447 0.383337
vt 0.039358 0.362590
vt 0.028269 0.341844
vt 0.021440 0.319333
vt 0.014612 0.296822
vt 0.012306 0.273411
vt 0.010000 0.250000
vt 0.012306 0.226589
vt 0.014612 0.203178
vt 0.021440 0.180667
vt 0.028269 0.158156
vt 0.039358 0.137410
vt 0.050447 0.116663
vt 0.065371 0.098479
vt 0.080294 0.080294
vt 0.098479 0.065371
vt 0.116663 0.050447
vt 0.137410 0.039358
vt 0.158156 0.028269
vt 0.180667 0.021440
vt 0.203178 0.014612
vt 0.226589 0.012306
vt 0.250000 0.010000
vt 0.273411 0.012306
vt 0.296822 0.014612
vt 0.319333 0.021440
vt 0.341844 0.028269
vt 0.362590 0.039358
vt 0.383337 0.050447
vt 0.401521 0.065371
vt 0.419706 0.080294
vt 0.434629 0.098479
vt 0.449553 0.116663
vt 0.460642 0.137410
vt 0.471731 0.158156
vt 0.478560 0.180667
vt 0.485388 0.203178
vt 0.487694 0.226589
vt 0.490000 0.250000
vt 0.487694 0.273411
vt 0.485388 0.296822
vt 0.478560 0.319333
vt 0.471731 0.341844
vt 0.460642 0.362590
vt 0.449553 0.383337
vt 0.434629 0.401521
vt 0.419706 0.419706
vt 0.401521 0.434629
vt 0.383337 0.449553
vt 0.362590 0.460642
vt 0.341844 0.471731
vt 0.319333 0.478560
vt 0.046875 0.750000
vt 0.046875 1.000000
vt 0.031250 1.000000
vt 0.031250 0.750000
vt 0.015625 0.750000
vt 0.015625 1.000000
vt 0.000000 1.000000
vt 0.000000 0.750000
vt 0.750000 0.490000
vt 0.773411 0.487694
vt 0.796822 0.485388
vt 0.819333 0.478560
vt 0.841844 0.471731
vt 0.862590 0.460642
vt 0.883337 0.449553
vt 0.901521 0.434629
vt 0.919706 0.419706
vt 0.934629 0.401521
vt 0.949553 0.383337
vt 0.960642 0.362590
vt 0.971731 0.341844
vt 0.978560 0.319333
vt 0.985388 0.296822
vt 0.987694 0.273411
vt 0.990000 0.250000
vt 0.987694 0.226589
vt 0.985388 0.203178
vt 0.978560 0.180667
vt 0.971731 0.158156
vt 0.960642 0.137410
vt 0.949553 0.116663
vt 0.934629 0.098479
vt 0.919706 0.080294
vt 0.901521 0.065371
vt 0.883337 0.050447
vt 0.862590 0.039358
vt 0.841844 0.028269
vt 0.819333 0.021440
vt 0.796822 0.014612
vt 0.773411 0.012306
vt 0.750000 0.010000
vt 0.726589 0.012306
vt 0.703178 0.014612
vt 0.680667 0.021440
vt 0.658156 0.028269
vt 0.637410 0.039358
vt 0.616663 0.050447
vt 0.598479 0.065371
vt 0.580294 0.080294
vt 0.565371 0.098479
vt 0.550447 0.116663
vt 0.539358 0.137410
vt 0.528269 0.158156
vt 0.521440 0.180667
vt 0.514612 0.203178
vt 0.512306 0.226589
vt 0.510000 0.250000
vt 0.512306 0.273411
vt 0.514612 0.296822
vt 0.521440 0.319333
vt 0.528269 0.341844
vt 0.539358 0.362590
vt 0.550447 0.383337
vt 0.565371 0.401521
vt 0.580294 0.419706
vt 0.598479 0.434629
vt 0.616663 0.449553
vt 0.637410 0.460642
vt 0.658156 0.471731
vt 0.680667 0.478560
vt 0.703178 0.485388
vt 0.726589 0.487694
vt 0.015625 0.500000
vt 0.000000 0.500000
vt 0.031250 0.500000
vt 0.046875 0.500000
vt 0.062500 0.500000
vt 0.078125 0.500000
vt 0.093750 0.500000
vt 0.109375 0.500000
vt 0.125000 0.500000
vt 0.140625 0.500000
vt 0.156250 0.500000
vt 0.171875 0.500000
vt 0.187500 0.500000
vt 0.203125 0.500000
vt 0.218750 0.500000
vt 0.234375 0.500000
vt 0.250000 0.500000
vt 0.265625 0.500000
vt 0.281250 0.500000
vt 0.296875 0.500000
vt 0.312500 0.500000
vt 0.328125 0.500000
vt 0.343750 0.500000
vt 0.359375 0.500000
vt 0.375000 0.500000
vt 0.390625 0.500000
vt 0.406250 0.500000
vt 0.421875 0.500000
vt 0.437500 0.500000
vt 0.453125 0.500000
vt 0.468750 0.500000
vt 0.484375 0.500000
vt 0.500000 0.500000
vt 0.515625 0.500000
vt 0.531250 0.500000
vt 0.546875 0.500000
vt 0.562500 0.500000
vt 0.578125 0.500000
vt 0.593750 0.500000
vt 0.609375 0.500000
vt 0.625000 0.500000
vt 0.640625 0.500000
vt 0.656250 0.500000
vt 0.671875 0.500000
vt 0.687500 0.500000
vt 0.703125 0.500000
vt 0.718750 0.500000
vt 0.734375 0.500000
vt 0.750000 0.500000
vt 0.765625 0.500000
vt 0.781250 0.500000
vt 0.796875 0.500000
vt 0.812500 0.500000
vt 0.828125 0.500000
vt 0.843750 0.500000
vt 0.859375 0.500000
vt 0.875000 0.500000
vt 0.890625 0.500000
vt 0.906250 0.500000
vt 0.921875 0.500000
vt 0.937500 0.500000
vt 0.953125 0.500000
vt 0.968750 0.500000
vt 0.984375 0.500000
vt 1.000000 0.500000
vt 1.000000 0.750000
vt 1.000000 1.000000
s 0
f 192/1/1 66/2/1 4/3/1 68/4/1
f 191/5/2 70/6/2 6/7/2 71/8/2
f 190/9/3 73/10/3 8/11/3 74/12/3
f 189/13/4 76/14/4 10/15/4 77/16/4
f 188/17/5 79/18/5 12/19/5 80/20/5
f 187/21/6 82/22/6 14/23/6 83/24/6
f 186/25/7 85/26/7 16/27/7 86/28/7
f 185/29/8 88/30/8 18/31/8 89/32/8
f 184/33/9 91/34/9 20/35/9 92/36/9
f 183/37/10 94/38/10 22/39/10 95/40/10
f 182/41/11 97/42/11 24/43/11 98/44/11
f 181/45/12 100/46/12 26/47/12 101/48/12
f 180/49/13 103/50/13 28/51/13 104/52/13
f 179/53/14 106/54/14 30/55/14 107/56/14
f 178/57/15 109/58/15 32/59/15 110/60/15
f 177/61/16 112/62/16 34/63/16 113/64/16
f 176/65/17 115/66/17 36/67/17 116/68/17
f 175/69/18 118/70/18 38/71/18 119/72/18
f 174/73/19 121/74/19 40/75/19 122/76/19
f 173/77/20 124/78/20 42/79/20 125/80/20
f 172/81/21 127/82/21 44/83/21 128/84/21
f 171/85/22 130/86/22 46/87/22 131/88/22
f 170/89/23 133/90/23 48/91/23 134/92/23
f 169/93/24 136/94/24 50/95/24 137/96/24
f 168/97/25 139/98/25 52/99/25 140/100/25
f 167/101/26 142/102/26 54/103/26 143/104/26
f 166/105/27 145/106/27 56/107/27 146/108/27
f 165/109/28 148/110/28 58/111/28 149/112/28
f 164/113/29 151/114/29 60/115/29 152/116/29
f 163/117/30 154/118/30 62/119/30 155/120/30
f 4/121/31 66/122/31 2/123/31 160/124/31 64/125/31 157/126/31 62/127/31 154/128/31 60/129/31 151/130/31 58/131/31 148/132/31 56/133/31 145/134/31 54/135/31 142/136/31 52/137/31 139/138/31 50/139/31 136/140/31 48/141/31 133/142/31 46/143/31 130/144/31 44/145/31 127/146/31 42/147/31 124/148/31 40/149/31 121/150/31 38/151/31 118/152/31 36/153/31 115/154/31 34/155/31 112/156/31 32/157/31 109/158/31 30/159/31 106/160/31 28/161/31 103/162/31 26/163/31 100/164/31 24/165/31 97/166/31 22/167/31 94/168/31 20/169/31 91/170/31 18/171/31 88/172/31 16/173/31 85/174/31 14/175/31 82/176/31 12/177/31 79/178/31 10/179/31 76/180/31 8/181/31 73/182/31 6/183/31 70/184/31
f 162/185/32 157/186/32 64/187/32 158/188/32
f 161/189/33 160/190/33 2/191/33 67/192/33
f 1/193/34 65/194/34 3/195/34 69/196/34 5/197/34 72/198/34 7/199/34 75/200/34 9/201/34 78/202/34 11/203/34 81/204/34 13/205/34 84/206/34 15/207/34 87/208/34 17/209/34 90/210/34 19/211/34 93/212/34 21/213/34 96/214/34 23/215/34 99/216/34 25/217/34 102/218/34 27/219/34 105/220/34 29/221/34 108/222/34 31/223/34 111/224/34 33/225/34 114/226/34 35/227/34 117/228/34 37/229/34 120/230/34 39/231/34 123/232/34 41/233/34 126/234/34 43/235/34 129/236/34 45/237/34 132/238/34 47/239/34 135/240/34 49/241/34 138/242/34 51/243/34 141/244/34 53/245/34 144/246/34 55/247/34 147/248/34 57/249/34 150/250/34 59/251/34 153/252/34 61/253/34 156/254/34 63/255/34 159/256/34
f 159/257/33 161/189/33 67/192/33 1/258/33
f 63/259/33 158/188/33 161/189/33 159/257/33
f 158/188/33 64/187/33 160/190/33 161/189/33
f 156/260/32 162/185/32 158/188/32 63/259/32
f 61/261/32 155/120/32 162/185/32 156/260/32
f 155/120/32 62/119/32 157/186/32 162/185/32
f 153/262/30 163/117/30 155/120/30 61/261/30
f 59/263/30 152/116/30 163/117/30 153/262/30
f 152/116/30 60/115/30 154/118/30 163/117/30
f 150/264/29 164/113/29 152/116/29 59/263/29
f 57/265/29 149/112/29 164/113/29 150/264/29
f 149/112/29 58/111/29 151/114/29 164/113/29
f 147/266/28 165/109/28 149/112/28 57/265/28
f 55/267/28 146/108/28 165/109/28 147/266/28
f 146/108/28 56/107/28 148/110/28 165/109/28
f 144/268/27 166/105/27 146/108/27 55/267/27
f 53/269/27 143/104/27 166/105/27 144/268/27
f 143/104/27 54/103/27 145/106/27 166/105/27
f 141/270/26 167/101/26 143/104/26 53/269/26
f 51/271/26 140/100/26 167/101/26 141/270/26
f 140/100/26 52/99/26 142/102/26 167/101/26
f 138/272/25 168/97/25 140/100/25 51/271/25
f 49/273/25 137/96/25 168/97/25 138/272/25
f 137/96/25 50/95/25 139/98/25 168/97/25
f 135/274/24 169/93/24 137/96/24 49/273/24
f 47/275/24 134/92/24 169/93/24 135/274/24
f 134/92/24 48/91/24 136/94/24 169/93/24
f 132/276/23 170/89/23 134/92/23 47/275/23
f 45/277/23 131/88/23 170/89/23 132/276/23
f 131/88/23 46/87/23 133/90/23 170/89/23
f 129/278/22 171/85/22 131/88/22 45/277/22
f 43/279/22 128/84/22 171/85/22 129/278/22
f 128/84/22 44/83/22 130/86/22 171/85/22
f 126/280/21 172/81/21 128/84/21 43/279/21
f 41/281/21 125/80/21 172/81/21 126/280/21
f 125/80/21 42/79/21 127/82/21 172/81/21
f 123/282/20 173/77/20 125/80/20 41/281/20
f 39/283/20 122/76/20 173/77/20 123/282/20
f 122/76/20 40/75/20 124/78/20 173/77/20
f 120/284/19 174/73/19 122/76/19 39/283/19
f 37/285/19 119/72/19 174/73/19 120/284/19
f 119/72/19 38/71/19 121/74/19 174/73/19
f 117/286/18 175/69/18 119/72/18 37/285/18
f 35/287/18 116/68/18 175/69/18 117/286/18
f 116/68/18 36/67/18 118/70/18 175/69/18
f 114/288/17 176/65/17 116/68/17 35/287/17
f 33/289/17 113/64/17 176/65/17 114/288/17
f 113/64/17 34/63/17 115/66/17 176/65/17
f 111/290/16 177/61/16 113/64/16 33/289/16
f 31/291/16 110/60/16 177/61/16 111/290/16
f 110/60/16 32/59/16 112/62/16 177/61/16
f 108/292/15 178/57/15 110/60/15 31/291/15
f 29/293/15 107/56/15 178/57/15 108/292/15
f 107/56/15 30/55/15 109/58/15 178/57/15
f 105/294/14 179/53/14 107/56/14 29/293/14
f 27/295/14 104/52/14 179/53/14 105/294/14
f 104/52/14 28/51/14 106/54/14 179/53/14
f 102/296/13 180/49/13 104/52/13 27/295/13
f 25/297/13 101/48/13 180/49/13 102/296/13
f 101/48/13 26/47/13 103/50/13 180/49/13
f 99/298/12 181/45/12 101/48/12 25/297/12
f 23/299/12 98/44/12 181/45/12 99/298/12
f 98/44/12 24/43/12 100/46/12 181/45/12
f 96/300/11 182/41/11 98/44/11 23/299/11
f 21/301/11 95/40/11 182/41/11 96/300/11
f 95/40/11 22/39/11 97/42/11 182/41/11
f 93/302/10 183/37/10 95/40/10 21/301/10
f 19/303/10 92/36/10 183/37/10 93/302/10
f 92/36/10 20/35/10 94/38/10 183/37/10
f 90/304/9 184/33/9 92/36/9 19/303/9
f 17/305/9 89/32/9 184/33/9 90/304/9
f 89/32/9 18/31/9 91/34/9 184/33/9
f 87/306/8 185/29/8 89/32/8 17/305/8
f 15/307/8 86/28/8 185/29/8 87/306/8
f 86/28/8 16/27/8 88/30/8 185/29/8
f 84/308/7 186/25/7 86/28/7 15/307/7
f 13/309/7 83/24/7 186/25/7 84/308/7
f 83/24/7 14/23/7 85/26/7 186/25/7
f 81/310/6 187/21/6 83/24/6 13/309/6
f 11/311/6 80/20/6 187/21/6 81/310/6
f 80/20/6 12/19/6 82/22/6 187/21/6
f 78/312/5 188/17/5 80/20/5 11/311/5
f 9/313/5 77/16/5 188/17/5 78/312/5
f 77/16/5 10/15/5 79/18/5 188/17/5
f 75/314/4 189/13/4 77/16/4 9/313/4
f 7/315/4 74/12/4 189/13/4 75/314/4
f 74/12/4 8/11/4 76/14/4 189/13/4
f 72/316/3 190/9/3 74/12/3 7/315/3
f 5/317/3 71/8/3 190/9/3 72/316/3
f 71/8/3 6/7/3 73/10/3 190/9/3
f 69/318/2 191/5/2 71/8/2 5/317/2
f 3/319/2 68/4/2 191/5/2 69/318/2
f 68/4/2 4/3/2 70/6/2 191/5/2
f 65/320/1 192/1/1 68/4/1 3/319/1
f 1/321/1 67/322/1 192/1/1 65/320/1
f 67/322/1 2/323/1 66/2/1 192/1/1
